HIERARCHY
ROOT Hips
{
	OFFSET 0.000000 0.000000 0.000000
	CHANNELS 6 Xposition Yposition Zposition Zrotation Yrotation Xrotation 
	JOINT LHipJoint
	{
		OFFSET 0.000000 0.000000 0.000000
		CHANNELS 3 Zrotation Yrotation Xrotation
		JOINT LeftUpLeg
		{
			OFFSET 1.363060 -1.794630 0.839290
			CHANNELS 3 Zrotation Yrotation Xrotation
			JOINT LeftLeg
			{
				OFFSET 2.448110 -6.726130 0.000000
				CHANNELS 3 Zrotation Yrotation Xrotation
				JOINT LeftFoot
				{
					OFFSET 2.562200 -7.039590 0.000000
					CHANNELS 3 Zrotation Yrotation Xrotation
					JOINT LeftToeBase
					{
						OFFSET 0.157640 -0.433110 2.322550
						CHANNELS 3 Zrotation Yrotation Xrotation
						End Site
						{
							OFFSET 0.000000 0.000000 0.000000
						}
					}
				}
			}
		}
	}
	JOINT RHipJoint
	{
		OFFSET 0.000000 0.000000 0.000000
		CHANNELS 3 Zrotation Yrotation Xrotation
		JOINT RightUpLeg
		{
			OFFSET -1.305520 -1.794630 0.839290
			CHANNELS 3 Zrotation Yrotation Xrotation
			JOINT RightLeg
			{
				OFFSET -2.542530 -6.985550 0.000000
				CHANNELS 3 Zrotation Yrotation Xrotation
				JOINT RightFoot
				{
					OFFSET -2.568260 -7.056230 0.000000
					CHANNELS 3 Zrotation Yrotation Xrotation
					JOINT RightToeBase
					{
						OFFSET -0.164730 -0.452590 2.363150
						CHANNELS 3 Zrotation Yrotation Xrotation
						End Site
						{
							OFFSET 0.000000 0.000000 0.000000
						}
					}
				}
			}
		}
	}
	JOINT LowerBack
	{
		OFFSET 0.000000 0.000000 0.000000
		CHANNELS 3 Zrotation Yrotation Xrotation
		JOINT Spine
		{
			OFFSET 0.028270 2.035590 -0.193380
			CHANNELS 3 Zrotation Yrotation Xrotation
			JOINT Spine1
			{
				OFFSET 0.056720 2.048850 -0.042750
				CHANNELS 3 Zrotation Yrotation Xrotation
				JOINT Neck
				{
					OFFSET 0.000000 0.000000 0.000000
					CHANNELS 3 Zrotation Yrotation Xrotation
					JOINT Neck1
					{
						OFFSET -0.054170 1.746240 0.172020
						CHANNELS 3 Zrotation Yrotation Xrotation
						JOINT Head
						{
							OFFSET 0.104070 1.761360 -0.123970
							CHANNELS 3 Zrotation Yrotation Xrotation
							End Site
							{
								OFFSET 0.000000 0.000000 0.000000
							}
						}
					}
				}
				JOINT LeftShoulder
				{
					OFFSET 0.000000 0.000000 0.000000
					CHANNELS 3 Zrotation Yrotation Xrotation
					JOINT LeftArm
					{
						OFFSET 3.362410 1.200890 -0.311210
						CHANNELS 3 Zrotation Yrotation Xrotation
						JOINT LeftForeArm
						{
							OFFSET 4.983000 -0.000000 -0.000000
							CHANNELS 3 Zrotation Yrotation Xrotation
							JOINT LeftHand
							{
								OFFSET 3.483560 -0.000000 -0.000000
								CHANNELS 3 Zrotation Yrotation Xrotation
								JOINT LeftFingerBase
								{
									OFFSET 0.000000 0.000000 0.000000
									CHANNELS 3 Zrotation Yrotation Xrotation
									JOINT LeftHandIndex1
									{
										OFFSET 0.715260 -0.000000 -0.000000
										CHANNELS 3 Zrotation Yrotation Xrotation
										End Site
										{
											OFFSET 0.000000 0.000000 0.000000
										}
									}
								}
								JOINT LThumb
								{
									OFFSET 0.000000 0.000000 0.000000
									CHANNELS 3 Zrotation Yrotation Xrotation
									End Site
									{
										OFFSET 0.000000 0.000000 0.000000
									}
								}
							}
						}
					}
				}
				JOINT RightShoulder
				{
					OFFSET 0.000000 0.000000 0.000000
					CHANNELS 3 Zrotation Yrotation Xrotation
					JOINT RightArm
					{
						OFFSET -3.136600 1.374050 -0.404650
						CHANNELS 3 Zrotation Yrotation Xrotation
						JOINT RightForeArm
						{
							OFFSET -5.241900 -0.000000 -0.000000
							CHANNELS 3 Zrotation Yrotation Xrotation
							JOINT RightHand
							{
								OFFSET -3.444170 -0.000000 -0.000000
								CHANNELS 3 Zrotation Yrotation Xrotation
								JOINT RightFingerBase
								{
									OFFSET 0.000000 0.000000 0.000000
									CHANNELS 3 Zrotation Yrotation Xrotation
									JOINT RightHandIndex1
									{
										OFFSET -0.622530 -0.000000 -0.000000
										CHANNELS 3 Zrotation Yrotation Xrotation
										End Site
										{
											OFFSET 0.000000 0.000000 0.000000
										}
									}
								}
								JOINT RThumb
								{
									OFFSET 0.000000 0.000000 0.000000
									CHANNELS 3 Zrotation Yrotation Xrotation
									End Site
									{
										OFFSET 0.000000 0.000000 0.000000
									}
								}
							}
						}
					}
				}
			}
		}
	}
}
MOTION
Frames: 10
Frame Time: 0.008333
10.416645 17.537750 -22.486650 -179.598190 0.728434 -172.567186 -2.796535 19.040724 7.535922 -13.307893 -9.023435 -15.547621 -0.041743 -3.423009 19.465487 19.729395 -9.883278 -9.690004 -4.941122 1.480872 -7.153203 -0.903579 -19.169157 -6.119568 21.198399 -8.033478 -3.233444 -1.522535 -0.147631 17.596867 -34.128584 15.877688 -14.120750 4.566485 -1.898534 -8.505678 2.908431 3.363153 5.589586 12.556540 3.478682 8.916757 -13.820561 -15.102070 -23.744737 -6.044916 -1.930159 -15.852513 3.901549 -1.508415 1.488817 -2.010307 0.131405 -13.145421 11.586525 25.618747 1.332924 -20.882063 -3.522825 11.941140 6.794680 -28.019921 -0.438002 2.882088 15.643658 -1.834647 3.002558 12.907120 0.000000 0.000000 0.000000 0.000000 0.000000 0.000000 0.000000 -22.225621 -35.686334 -6.438991 51.964802 27.369768 25.677539 -4.460384 9.340967 14.684629 0.776866 0.223543 3.900769 1.612951 -8.618847 -0.000000 0.000000 0.000000 0.000000 0.000000 0.000000 0.000000 
10.415865 17.537900 -22.488450 -179.596121 0.742317 -172.562483 -2.796898 19.033214 7.528303 -13.310331 -9.017849 -15.535899 -0.039970 -3.414728 19.464876 19.730060 -9.873584 -9.690993 -4.948749 1.481013 -7.174653 -0.904164 -19.176238 -6.120683 21.200159 -8.037792 -3.236340 -1.526297 -0.146802 17.596713 -34.187468 15.874523 -14.144226 4.541299 -1.882936 -8.486390 2.905938 3.375948 5.604968 12.541467 3.491556 8.932788 -13.844274 -15.064048 -23.751954 -6.069788 -1.797090 -15.841819 3.923373 -1.379311 1.583814 -1.993051 0.172894 -13.107250 11.587066 25.593980 1.315469 -20.884601 -3.585847 11.958952 6.783767 -28.012329 -0.452249 2.883114 15.633903 -1.845293 3.004782 12.906616 0.000000 0.000000 0.000000 0.000000 0.000000 0.000000 0.000000 -22.216598 -35.748889 -6.440697 51.962103 27.344750 25.709774 -4.441623 9.328076 14.670172 0.787596 0.242773 3.885705 1.621510 -8.618528 -0.000000 0.000000 0.000000 0.000000 0.000000 0.000000 0.000000 
10.415025 17.537750 -22.490400 -179.590227 0.759293 -172.559879 -2.796498 19.023639 7.523779 -13.306538 -9.015818 -15.526314 -0.039105 -3.405102 19.469695 19.719005 -9.862553 -9.707370 -4.947817 1.483359 -7.168542 -0.905784 -19.179486 -6.116724 21.203195 -8.035597 -3.237931 -1.525696 -0.138736 17.600037 -34.179689 15.886217 -14.142322 4.545926 -1.884582 -8.491285 2.899482 3.385530 5.609308 12.543216 3.501504 8.937605 -13.854496 -15.056279 -23.753140 -6.072665 -1.771245 -15.839565 3.929001 -1.354926 1.617201 -1.989600 0.179590 -13.094104 11.580300 25.592091 1.306255 -20.886914 -3.613746 11.968328 6.790453 -28.015649 -0.448817 2.886466 15.638289 -1.841533 3.007633 12.907506 0.000000 0.000000 0.000000 0.000000 0.000000 0.000000 0.000000 -22.216085 -35.759092 -6.438168 51.976084 27.316537 25.698577 -4.436954 9.347062 14.635590 0.779546 0.227717 3.871037 1.611966 -8.618357 -0.000000 0.000000 0.000000 0.000000 0.000000 0.000000 0.000000 
10.414140 17.536850 -22.492050 -179.584868 0.785213 -172.562507 -2.796319 19.025090 7.521288 -13.306973 -9.010874 -15.519044 -0.033661 -3.390742 19.485559 19.723625 -9.847685 -9.731350 -4.942462 1.484301 -7.160276 -0.905724 -19.180187 -6.114781 21.204431 -8.032764 -3.238431 -1.530217 -0.138826 17.614964 -34.194805 15.892042 -14.161836 4.542596 -1.879472 -8.496136 2.891219 3.383675 5.608289 12.550251 3.500917 8.931437 -13.840789 -15.064880 -23.750330 -6.063880 -1.805235 -15.848800 3.930291 -1.387939 1.586703 -1.993078 0.163108 -13.107195 11.573065 25.600919 1.319473 -20.890126 -3.581751 11.965443 6.783789 -28.035108 -0.447865 2.885632 15.645555 -1.843348 3.006655 12.909015 0.000000 0.000000 0.000000 0.000000 0.000000 0.000000 0.000000 -22.206185 -35.745942 -6.433739 51.991673 27.350894 25.743778 -4.440549 9.349461 14.662595 0.775007 0.235817 3.888469 1.610814 -8.617666 -0.000000 0.000000 0.000000 0.000000 0.000000 0.000000 0.000000 
10.413210 17.536550 -22.493700 -179.580054 0.808519 -172.557752 -2.797367 19.017216 7.514552 -13.306542 -9.010856 -15.511901 -0.029404 -3.378564 19.495600 19.703813 -9.829728 -9.752233 -4.945965 1.489420 -7.157921 -0.905406 -19.180356 -6.115401 21.208300 -8.026279 -3.242912 -1.534483 -0.137715 17.626836 -34.198550 15.896607 -14.167241 4.544613 -1.877576 -8.505238 2.884177 3.392374 5.621631 12.548035 3.511212 8.922781 -13.840060 -15.055520 -23.759037 -6.073310 -1.759601 -15.837899 3.936700 -1.344050 1.620822 -1.987312 0.177967 -13.093198 11.574179 25.595392 1.299163 -20.919136 -3.597055 11.950294 6.798882 -28.009007 -0.446385 2.879633 15.630129 -1.842440 3.003140 12.905249 0.000000 0.000000 0.000000 0.000000 0.000000 0.000000 0.000000 -22.196601 -35.770633 -6.438926 52.005260 27.348197 25.741049 -4.438645 9.376058 14.673037 0.769264 0.220357 3.897932 1.607556 -8.617948 -0.000000 0.000000 0.000000 0.000000 0.000000 0.000000 0.000000 
10.412220 17.536100 -22.495350 -179.577330 0.831012 -172.555890 -2.798628 19.015595 7.505438 -13.310949 -9.003718 -15.502400 -0.023719 -3.363683 19.507778 19.718681 -9.814052 -9.774484 -4.939762 1.488623 -7.153432 -0.906059 -19.183838 -6.112003 21.208098 -8.022146 -3.248342 -1.534583 -0.135440 17.637871 -34.201979 15.905204 -14.174051 4.542505 -1.876446 -8.503661 2.880783 3.398113 5.630702 12.546217 3.518345 8.924321 -13.850558 -15.044459 -23.755130 -6.086119 -1.703195 -15.840778 3.951080 -1.289106 1.658064 -1.979233 0.191800 -13.079434 11.566801 25.579009 1.313185 -20.898693 -3.588431 11.957448 6.763469 -28.036551 -0.463287 2.870113 15.546493 -1.855379 2.993575 12.893880 0.000000 0.000000 0.000000 0.000000 0.000000 0.000000 0.000000 -22.185198 -35.795888 -6.443002 52.017896 27.349256 25.760485 -4.432853 9.388041 14.667406 0.771388 0.227125 3.892931 1.609594 -8.617397 -0.000000 0.000000 0.000000 0.000000 0.000000 0.000000 0.000000 
10.411410 17.535500 -22.497000 -179.573561 0.851621 -172.554223 -2.799874 19.006241 7.501017 -13.310828 -9.003574 -15.491420 -0.017567 -3.351880 19.513525 19.712392 -9.795103 -9.794054 -4.939425 1.490768 -7.152704 -0.907592 -19.188187 -6.110394 21.210944 -8.018126 -3.253515 -1.537034 -0.132345 17.651264 -34.209669 15.915169 -14.186351 4.545190 -1.872875 -8.518417 2.877946 3.408532 5.636723 12.553330 3.530482 8.924169 -13.876155 -15.039968 -23.740645 -6.098354 -1.657294 -15.847211 3.965102 -1.244306 1.693670 -1.972277 0.201292 -13.066759 11.549918 25.566298 1.341821 -20.843353 -3.592972 11.995699 6.728874 -28.079399 -0.469883 2.867501 15.552889 -1.863060 2.987305 12.899113 0.000000 0.000000 0.000000 0.000000 0.000000 0.000000 0.000000 -22.180648 -35.818003 -6.445672 52.042244 27.343926 25.769017 -4.431606 9.383126 14.665160 0.767753 0.237523 3.892133 1.605804 -8.615906 -0.000000 0.000000 0.000000 0.000000 0.000000 0.000000 0.000000 
10.410615 17.535200 -22.498500 -179.565040 0.871377 -172.551551 -2.797400 18.995522 7.496936 -13.307991 -9.007879 -15.483707 -0.011536 -3.340669 19.523940 19.709637 -9.774104 -9.811597 -4.937228 1.492028 -7.150462 -0.904456 -19.196406 -6.114489 21.217727 -8.026398 -3.254785 -1.538315 -0.129467 17.667688 -34.258743 15.933668 -14.234050 4.514928 -1.859715 -8.472184 2.862409 3.420962 5.650186 12.544752 3.543427 8.916304 -13.866266 -15.010008 -23.748090 -6.095856 -1.606562 -15.835299 3.971606 -1.195931 1.736060 -1.965971 0.217318 -13.046336 11.569480 25.556490 1.292259 -20.937449 -3.642147 11.961736 6.797551 -27.998541 -0.435145 2.860510 15.532847 -1.836426 2.982706 12.886783 0.000000 0.000000 0.000000 0.000000 0.000000 0.000000 0.000000 -22.186303 -35.825764 -6.428376 52.026156 27.313548 25.785902 -4.418484 9.399935 14.632459 0.762435 0.240469 3.879243 1.599193 -8.613980 -0.000000 0.000000 0.000000 0.000000 0.000000 0.000000 0.000000 
10.409730 17.534900 -22.500150 -179.562193 0.890068 -172.548561 -2.799197 18.991477 7.489836 -13.309364 -9.002692 -15.475667 -0.007787 -3.328445 19.533400 19.710616 -9.760126 -9.821363 -4.938840 1.493040 -7.156306 -0.905803 -19.196657 -6.110567 21.216677 -8.018862 -3.260932 -1.540096 -0.126957 17.671363 -34.234992 15.933181 -14.208924 4.533181 -1.865728 -8.504403 2.860217 3.427274 5.656472 12.546616 3.551540 8.917353 -13.885459 -14.998000 -23.735015 -6.112444 -1.540878 -15.839034 3.989270 -1.131923 1.778241 -1.956238 0.232385 -13.029760 11.559173 25.536470 1.322333 -20.897914 -3.642467 11.995336 6.772256 -28.018603 -0.434353 2.859263 15.529133 -1.837881 2.977534 12.889094 0.000000 0.000000 0.000000 0.000000 0.000000 0.000000 0.000000 -22.175452 -35.854318 -6.439005 52.050790 27.308180 25.778347 -4.421812 9.396112 14.633720 0.750286 0.243150 3.886015 1.587839 -8.612363 -0.000000 0.000000 0.000000 0.000000 0.000000 0.000000 0.000000 
10.408830 17.534600 -22.501650 -179.556875 0.912031 -172.544846 -2.799656 18.984735 7.484710 -13.307930 -8.999299 -15.466457 -0.006781 -3.318112 19.536065 19.690627 -9.747261 -9.840771 -4.936388 1.498178 -7.137212 -0.906213 -19.200068 -6.109385 21.217436 -8.019971 -3.264813 -1.538461 -0.119663 17.676802 -34.230440 15.948710 -14.205364 4.536858 -1.866674 -8.509967 2.853305 3.436123 5.665190 12.547788 3.560800 8.925117 -13.889067 -14.981304 -23.737530 -6.123305 -1.480425 -15.836789 3.999859 -1.073089 1.815930 -1.948137 0.250345 -13.013201 11.561466 25.520795 1.315929 -20.914975 -3.652014 11.989664 6.782492 -28.001543 -0.433763 2.862487 15.562603 -1.838480 2.982041 12.894267 0.000000 0.000000 0.000000 0.000000 0.000000 0.000000 0.000000 -22.167032 -35.879555 -6.439758 52.045972 27.298629 25.790787 -4.411806 9.419715 14.622376 0.755550 0.206755 3.877736 1.593508 -8.616809 -0.000000 0.000000 0.000000 0.000000 0.000000 0.000000 0.000000 
